<svg version="1.2" xmlns="http://www.w3.org/2000/svg" viewBox="0 0 500 1080" width="500" height="1080"><style>.a{fill:#ffbc00}.b{fill:#0033d1}</style><path fill-rule="evenodd" class="a" d="m0.2 0h180.9v360h-180.9z"/><path fill-rule="evenodd" class="b" d="m181.1 0h180.9v360h-180.9z"/><path fill-rule="evenodd" class="b" d="m90.5 0l-90.3 90.3v90.6l90.3-90.3 90.6 90.6v-90.6z"/><path fill-rule="evenodd" class="b" d="m0.2 266.8v90.6l90.3-90.3 90.6 90.7v-90.7l-90.6-90.6c0 0-90.3 90.3-90.3 90.3z"/><path fill-rule="evenodd" class="a" d="m271.4 0l-90.3 90.3v90.6l90.3-90.3 90.6 90.6v-90.6z"/><path fill-rule="evenodd" class="a" d="m181.1 266.8v90.6l90.3-90.3 90.6 90.7v-90.7l-90.6-90.6c0 0-90.3 90.3-90.3 90.3z"/><path fill-rule="evenodd" class="a" d="m0.2 360h180.9v360h-180.9z"/><path fill-rule="evenodd" class="b" d="m181.1 360h180.9v360h-180.9z"/><path fill-rule="evenodd" class="b" d="m90.5 360l-90.3 90.3v90.6l90.3-90.3 90.6 90.6v-90.6z"/><path fill-rule="evenodd" class="b" d="m0.2 626.8v90.6l90.3-90.3 90.6 90.7v-90.7l-90.6-90.6c0 0-90.3 90.3-90.3 90.3z"/><path fill-rule="evenodd" class="a" d="m271.4 360l-90.3 90.3v90.6l90.3-90.3 90.6 90.6v-90.6z"/><path fill-rule="evenodd" class="a" d="m181.1 626.8v90.6l90.3-90.3 90.6 90.7v-90.7l-90.6-90.6c0 0-90.3 90.3-90.3 90.3z"/><path fill-rule="evenodd" class="a" d="m0.2 720h180.9v360h-180.9z"/><path fill-rule="evenodd" class="b" d="m181.1 720h180.9v360h-180.9z"/><path fill-rule="evenodd" class="b" d="m90.5 720l-90.3 90.3v90.6l90.3-90.3 90.6 90.6v-90.6z"/><path fill-rule="evenodd" class="b" d="m0.2 986.8v90.6l90.3-90.3 90.6 90.7v-90.7l-90.6-90.6c0 0-90.3 90.3-90.3 90.3z"/><path fill-rule="evenodd" class="a" d="m271.4 720l-90.3 90.3v90.6l90.3-90.3 90.6 90.6v-90.6z"/><path fill-rule="evenodd" class="a" d="m181.1 986.8v90.6l90.3-90.3 90.6 90.7v-90.7l-90.6-90.6c0 0-90.3 90.3-90.3 90.3z"/></svg>