<svg xmlns="http://www.w3.org/2000/svg" width="1655.936" height="420.203" viewBox="132.032 418.519 827.968 210.101"><g data-name="Group 10"><g data-name="Group 7"><g data-name="Group 6" transform="translate(132.032 418.519)" clip-path="url(&quot;#a&quot;)"><path d="M413.054 66.257v67.234h-30.83V74.8c0-12.63-5.202-17.272-16.902-17.272-11.329 0-17.272 4.642-17.272 17.271v58.69h-30.831V74.8c0-12.63-5.2-17.271-16.9-17.271-11.33 0-17.274 4.642-17.274 17.271v58.69h-30.831V33.57h30.83v21.543h1.673c5.014-15.786 12.815-23.959 31.759-23.959 19.687 0 28.416 9.844 30.644 23.96h1.672c5.201-15.787 13.744-23.96 32.689-23.96 19.687 0 31.573 9.658 31.573 35.103" fill-rule="evenodd" data-name="Path 13"/><path d="M530.064 80.744v5.571c0 27.86-16.716 49.776-51.819 49.776-35.102 0-51.817-21.916-51.817-49.776v-5.571c0-27.859 16.715-49.589 51.817-49.589 35.103 0 51.819 21.73 51.819 49.589m-51.819 30.274c13.373 0 20.06-5.2 20.06-21.916V77.958c0-16.714-6.687-21.916-20.06-21.916-13.371 0-20.058 5.202-20.058 21.916v11.144c0 16.716 6.687 21.916 20.058 21.916" fill-rule="evenodd" data-name="Path 14"/><path d="M642.986 80.744v5.571c0 27.86-16.715 49.776-51.818 49.776-35.102 0-51.818-21.916-51.818-49.776v-5.571c0-27.859 16.716-49.589 51.818-49.589 35.103 0 51.818 21.73 51.818 49.589m-51.818 30.274c13.373 0 20.06-5.2 20.06-21.916V77.958c0-16.714-6.687-21.916-20.06-21.916-13.372 0-20.058 5.202-20.058 21.916v11.144c0 16.716 6.686 21.916 20.058 21.916" fill-rule="evenodd" data-name="Path 15"/><path d="M722.663 33.57V63.1h-13.559c-15.972 0-21.916 7.614-21.916 23.215v47.175h-30.83V33.57h30.83v29.344h1.672c2.043-25.072 9.1-31.202 23.588-31.202 5.385 0 8.171.928 10.215 1.858" fill-rule="evenodd" data-name="Path 16"/><path d="M727.49 86.316v-5.572c0-27.859 16.157-49.589 51.817-49.589 34.917 0 48.66 20.616 48.66 47.174v10.215h-70.203v.558c0 15.973 6.128 22.659 21.543 22.659 13.187 0 18.573-6.129 18.945-11.701l.185-2.785h29.53c-.185 20.244-14.67 38.816-49.402 38.816-35.846 0-51.075-21.916-51.075-49.775m70.762-15.043c-1.301-12.26-7.058-17.644-19.687-17.644-13.188 0-19.316 5.2-20.616 17.644h40.303Z" fill-rule="evenodd" data-name="Path 17"/><path d="M278.166 176.892c-4.19.273-12.46.327-17.573.055v3.7c0 4.842 3.21 5.55 7.616 5.55 3.428 0 5.713-.272 8.76-.871.217 1.033.217 2.666 0 3.7-3.427.653-6.31.98-9.413.98-6.91 0-11.208-2.232-11.208-8.38V169.44c0-6.257 4.407-8.38 11.046-8.38 6.855 0 10.772 2.83 10.772 9.197v6.636Zm-4.19-6.691c0-4.843-3.1-5.441-6.638-5.441-3.536 0-6.745.598-6.745 5.44v3.864l4.677-.273h8.707v-3.59Z" fill="#0033d1" fill-rule="evenodd" data-name="Path 18"/><path d="M300.962 182.769c0 5.223-3.863 7.236-9.63 7.236-2.667 0-5.876-.218-8.597-.87-.272-1.143-.272-2.558 0-3.646 2.774.544 5.604.762 8.162.762 2.83 0 5.822-.436 5.822-3.972v-1.088c0-2.286-1.198-2.884-3.211-3.428l-5.66-1.524c-3.59-.979-5.33-2.72-5.33-6.038v-2.123c0-5.005 4.026-7.018 10.446-7.018 2.34 0 4.625.162 7.671.815.272 1.088.218 2.448 0 3.59-3.046-.596-4.896-.76-7.398-.76-3.483 0-6.53.38-6.53 3.917v1.09c0 2.011 1.306 2.718 3.21 3.264l5.55 1.522c3.7.98 5.495 2.612 5.495 6.257v2.014Z" fill="#0033d1" fill-rule="evenodd" data-name="Path 19"/><path d="M307.872 165.467H303.3c-.216-.98-.216-2.34 0-3.318l4.572-.218v-7.509c1.25-.217 3.047-.217 4.243 0v7.454h8.978c.217.925.217 2.612 0 3.59h-8.978v14.964c0 5.332 2.83 5.767 5.17 5.767 1.469 0 2.611-.164 3.808-.382.217 1.09.217 2.666 0 3.7-1.578.273-3.102.49-4.951.49-4.19 0-8.27-1.74-8.27-8.379v-16.16Z" fill="#0033d1" fill-rule="evenodd" data-name="Path 20"/><path d="M325.716 161.603a9.406 9.406 0 0 1 3.482 0l.435 4.245h.273c.87-3.374 4.352-4.788 9.085-4.788.218 1.034.218 2.775 0 3.809-5.876 0-7.562 1.306-9.031 5.168v19.315c-1.197.218-3.046.218-4.244 0v-27.749Z" fill="#0033d1" fill-rule="evenodd" data-name="Path 21"/><path d="M359.34 185.544h-.272c-.925 3.264-4.462 4.462-9.032 4.462-5.278 0-9.25-2.232-9.25-7.999 0-7.128 4.298-8.705 10.446-8.705 2.613 0 4.843.217 7.781.598v-3.755c0-3.482-1.74-5.385-7.671-5.385-2.45 0-5.17.217-8.27.76-.217-1.141-.217-2.557 0-3.644 3.264-.654 6.31-.816 9.303-.816 7.128 0 10.882 2.557 10.882 7.725v20.84c-.98.216-2.503.216-3.537 0l-.38-4.081Zm-.327-8.434a40.087 40.087 0 0 0-6.91-.599c-4.515 0-7.073.654-7.073 5.06 0 4.244 2.938 4.735 6.312 4.735 4.733 0 6.311-1.198 7.671-4.407v-4.79Z" fill="#0033d1" fill-rule="evenodd" data-name="Path 22"/><path d="M371.253 165.467h-4.57c-.218-.98-.218-2.34 0-3.318l4.57-.218v-7.509c1.251-.217 3.047-.217 4.244 0v7.454h8.977c.218.925.218 2.612 0 3.59h-8.977v14.964c0 5.332 2.83 5.767 5.17 5.767 1.468 0 2.61-.164 3.807-.382.218 1.09.218 2.666 0 3.7-1.577.273-3.1.49-4.95.49-4.19 0-8.27-1.74-8.27-8.379v-16.16Z" fill="#0033d1" fill-rule="evenodd" data-name="Path 23"/><path d="M409.775 176.892c-4.19.272-12.461.327-17.575.054v3.7c0 4.843 3.21 5.55 7.617 5.55 3.428 0 5.713-.271 8.76-.87.218 1.033.218 2.666 0 3.7-3.427.652-6.31.979-9.413.979-6.91 0-11.207-2.23-11.207-8.379v-12.188c0-6.257 4.406-8.38 11.045-8.38 6.855 0 10.773 2.831 10.773 9.197v6.637Zm-4.19-6.692c0-4.843-3.1-5.441-6.638-5.441-3.537 0-6.747.598-6.747 5.44v3.864l4.68-.273h8.704v-3.59Zm-6.149-11.752a8.994 8.994 0 0 1-3.808 0l5.06-8.542c1.47-.273 3.32-.273 4.788 0l-6.04 8.542Z" fill="#0033d1" fill-rule="evenodd" data-name="Path 24"/><path d="m433.713 188.753.272-4.19h-.218c-.98 3.265-4.515 4.463-9.14 4.463-5.442 0-9.467-2.177-9.467-7.999v-11.969c0-5.877 4.025-8 9.466-8 4.68 0 8.216 1.198 9.195 4.463h.218l.435-3.918c1.034-.217 2.504-.217 3.483 0v30.36c0 6.475-4.026 9.359-11.861 9.359-2.83 0-5.93-.219-9.25-.87-.055-.98.055-2.72.436-3.592a47.61 47.61 0 0 0 8.596.761c4.57 0 7.835-.978 7.835-5.55v-3.318Zm0-19.206c-1.36-3.59-2.83-4.788-7.726-4.788-3.591 0-6.583.598-6.583 5.823v8.977c0 4.95 2.992 5.658 6.583 5.658 4.896 0 6.366-1.197 7.726-4.678v-10.992Z" fill="#0033d1" fill-rule="evenodd" data-name="Path 25"/><path d="M450.795 155.619c-1.252.217-3.32.217-4.625 0l-.11-4.244c1.36-.217 3.537-.217 4.898 0l-.163 4.244Zm-4.407 6.149c1.197-.273 3.047-.273 4.243 0v27.585c-1.196.217-3.046.217-4.243 0v-27.585Z" fill="#0033d1" fill-rule="evenodd" data-name="Path 26"/><path d="M474.95 185.544h-.27c-.925 3.264-4.462 4.462-9.033 4.462-5.277 0-9.249-2.232-9.249-7.999 0-7.128 4.299-8.705 10.447-8.705 2.612 0 4.842.217 7.78.598v-3.755c0-3.482-1.741-5.385-7.671-5.385-2.45 0-5.17.217-8.27.76-.218-1.141-.218-2.557 0-3.644 3.263-.654 6.31-.816 9.302-.816 7.129 0 10.882 2.557 10.882 7.725v20.84c-.979.216-2.501.216-3.535 0l-.382-4.081Zm-.325-8.434a40.073 40.073 0 0 0-6.91-.599c-4.516 0-7.073.654-7.073 5.06 0 4.244 2.937 4.735 6.312 4.735 4.733 0 6.31-1.198 7.67-4.407v-4.79Z" fill="#0033d1" fill-rule="evenodd" data-name="Path 27"/><path d="M517.117 176.892c-4.19.273-12.46.327-17.574.055v3.7c0 4.842 3.21 5.55 7.616 5.55 3.428 0 5.713-.272 8.76-.871.218 1.033.218 2.666 0 3.7-3.427.653-6.31.98-9.412.98-6.91 0-11.208-2.232-11.208-8.38V169.44c0-6.257 4.407-8.38 11.045-8.38 6.855 0 10.773 2.83 10.773 9.197v6.636Zm-4.19-6.691c0-4.843-3.1-5.441-6.638-5.441-3.537 0-6.746.598-6.746 5.44v3.864l4.678-.273h8.706v-3.59Z" fill="#0033d1" fill-rule="evenodd" data-name="Path 28"/><path d="M530.118 161.768c1.306-.273 3.155-.273 4.407 0l7.78 22.633 7.617-22.633c1.198-.273 3.101-.273 4.353 0l-9.74 27.585c-1.196.217-3.427.217-4.624 0l-9.793-27.585Z" fill="#0033d1" fill-rule="evenodd" data-name="Path 29"/><path d="M574.46 185.544h-.271c-.925 3.264-4.462 4.462-9.033 4.462-5.277 0-9.25-2.232-9.25-7.999 0-7.128 4.299-8.705 10.447-8.705 2.612 0 4.842.217 7.78.598v-3.755c0-3.482-1.74-5.385-7.671-5.385-2.45 0-5.17.217-8.27.76-.217-1.141-.217-2.557 0-3.644 3.264-.654 6.311-.816 9.303-.816 7.128 0 10.882 2.557 10.882 7.725v20.84c-.979.216-2.502.216-3.536 0l-.381-4.081Zm-.327-8.434a40.087 40.087 0 0 0-6.909-.599c-4.516 0-7.074.654-7.074 5.06 0 4.244 2.938 4.735 6.312 4.735 4.733 0 6.311-1.198 7.671-4.407v-4.79Z" fill="#0033d1" fill-rule="evenodd" data-name="Path 30"/><path d="M585.613 150.178c1.198-.272 3.047-.272 4.244 0v39.175c-1.197.217-3.046.217-4.244 0v-39.175Z" fill="#0033d1" fill-rule="evenodd" data-name="Path 31"/><path d="M619.726 181.68c0 6.094-4.517 8.325-11.318 8.325-6.8 0-11.316-2.23-11.316-8.325v-12.242c0-6.257 4.515-8.38 11.316-8.38 6.801 0 11.318 2.123 11.318 8.38v12.242Zm-4.244-11.425c0-4.842-3.265-5.496-7.074-5.496-3.863 0-7.072.654-7.072 5.496v10.555c0 4.734 3.21 5.386 7.072 5.386 3.809 0 7.074-.652 7.074-5.386v-10.555Z" fill="#0033d1" fill-rule="evenodd" data-name="Path 32"/><path d="M626.961 161.603a9.406 9.406 0 0 1 3.482 0l.435 4.245h.272c.871-3.374 4.353-4.788 9.086-4.788.218 1.034.218 2.775 0 3.809-5.876 0-7.562 1.306-9.031 5.168v19.315c-1.197.218-3.046.218-4.244 0v-27.749Z" fill="#0033d1" fill-rule="evenodd" data-name="Path 33"/><path d="M27.737 27.737h156.558v156.558H27.737V27.737z" fill="#ffbc00" fill-rule="evenodd" data-name="Rectangle 3"/></g></g><g data-name="Group 9"><g data-name="Group 8" transform="translate(168.523 455.01)" clip-path="url(&quot;#b&quot;)"><path d="M-36.49 120.068 120.067-36.49l53.544 53.543L17.053 173.611l-53.543-53.543z" fill="#0033d1" fill-rule="evenodd" data-name="Rectangle 5"/></g></g></g><defs><clipPath id="a"><path d="M0 0h827.968v210.101H0V0z" data-name="Rectangle 4"/></clipPath><clipPath id="b"><path d="M0 0h139.052v139.052H0V0z" data-name="Rectangle 6"/></clipPath></defs></svg>